<?xml version="1.0" encoding="UTF-8" standalone="no"?>
<!-- Created with Inkscape (http://www.inkscape.org/) -->

<svg
   version="1.1"
   id="svg242"
   width="960"
   height="960"
   viewBox="0 0 960 960"
   sodipodi:docname="icon.svg"
   inkscape:export-filename="../../../../Desktop/splash-icon.png"
   inkscape:export-xdpi="96"
   inkscape:export-ydpi="96"
   inkscape:version="1.2.1 (9c6d41e4, 2022-07-14)"
   xmlns:inkscape="http://www.inkscape.org/namespaces/inkscape"
   xmlns:sodipodi="http://sodipodi.sourceforge.net/DTD/sodipodi-0.dtd"
   xmlns="http://www.w3.org/2000/svg"
   xmlns:svg="http://www.w3.org/2000/svg">
  <defs
     id="defs246" />
  <sodipodi:namedview
     id="namedview244"
     pagecolor="#ffffff"
     bordercolor="#666666"
     borderopacity="1.0"
     inkscape:showpageshadow="2"
     inkscape:pageopacity="0.0"
     inkscape:pagecheckerboard="0"
     inkscape:deskcolor="#d1d1d1"
     showgrid="false"
     inkscape:zoom="0.43457604"
     inkscape:cx="967.60972"
     inkscape:cy="679.97306"
     inkscape:window-width="1920"
     inkscape:window-height="1027"
     inkscape:window-x="0"
     inkscape:window-y="25"
     inkscape:window-maximized="1"
     inkscape:current-layer="g248" />
  <g
     inkscape:groupmode="layer"
     inkscape:label="Image"
     id="g248">
    <rect
       style="fill:#ffffff;stroke:none;stroke-width:11.4286;stroke-miterlimit:6.7"
       id="rect414"
       width="960"
       height="960"
       x="0"
       y="0"
       ry="0" />
    <path
       style="fill:#000000;stroke-width:0.621546"
       d="m 264.79893,679.74715 c -3.33005,-0.52944 -9.14557,-2.94395 -11.87079,-4.92865 -6.89897,-5.02402 -11.1027,-11.66866 -12.34736,-19.51685 -0.56266,-3.54749 -0.68307,-45.9544 -0.50382,-177.45072 l 0.2355,-172.78917 1.34391,-4.04002 c 3.47219,-10.43796 12.44345,-18.59979 22.55141,-20.51673 2.10542,-0.39927 78.2239,-0.61253 216.50708,-0.60659 229.74052,0.0103 217.12354,-0.1624 223.42282,3.0512 6.825,3.4819 12.23358,9.75607 14.38926,16.69216 1.18968,3.82793 1.21554,7.29536 1.34304,179.93692 L 720,655.61246 l -1.69278,4.42541 c -2.82138,7.37539 -7.88335,13.20623 -14.43881,16.63158 -7.0848,3.70207 7.65095,3.47917 -224.63687,3.39864 -117.08332,-0.0408 -213.57799,-0.1851 -214.43261,-0.32094 z m 430.24791,-13.90753 c 3.51894,-0.97733 7.41919,-4.29394 9.49428,-8.07388 l 1.86467,-3.3963 0.18841,-35.27267 0.18834,-35.27262 H 480.19685 253.61115 v 35.01792 35.01802 l 1.88347,3.76914 c 1.90472,3.81162 4.50004,6.31843 8.21183,7.93165 1.73299,0.75312 32.79078,0.88302 215.52509,0.90078 145.23022,0.015 214.24054,-0.18462 215.8153,-0.62204 z m -211.77527,-14.6701 c -6.79043,-1.01239 -11.40481,-3.31056 -15.59744,-7.76822 -3.58067,-3.80705 -4.85495,-5.86882 -6.37965,-10.32226 -3.14005,-9.17184 -0.77558,-19.21121 6.28235,-26.6739 6.84383,-7.23639 16.71508,-10.32343 25.3618,-7.93152 8.46398,2.34138 14.11501,6.9153 17.83053,14.43181 2.27499,4.60224 2.33653,4.9077 2.33653,11.59673 0,6.52733 -0.10652,7.09722 -2.13376,11.42338 -2.9496,6.29424 -9.04613,12.00679 -14.66665,13.74288 -4.17266,1.2887 -9.97553,1.9571 -13.03371,1.5011 z m 6.56804,-13.33807 c 5.97839,-1.28219 10.49715,-7.00591 10.49715,-13.29624 0,-8.63032 -8.0431,-15.30388 -16.1118,-13.36816 -8.30961,1.99337 -13.04724,11.93423 -9.33876,19.59496 1.63609,3.3798 3.50103,5.06412 7.21145,6.51319 3.64413,1.4232 3.68565,1.42618 7.74196,0.55625 z m -6.14893,-10.07321 c -1.69551,-1.8047 -1.72876,-4.13743 -0.0841,-5.90274 2.56939,-2.75783 7.43435,-0.67296 7.43435,3.186 0,3.75221 -4.73369,5.50194 -7.35021,2.71674 z m 75.49737,22.54337 c -6.51793,-2.02512 -13.64773,-8.0844 -16.2505,-13.81039 -1.91679,-4.21703 -3.05129,-10.91856 -2.5228,-14.90249 0.93959,-7.0828 5.29021,-14.48692 11.03073,-18.77266 4.76476,-3.55717 9.04974,-4.85004 16.35605,-4.93495 5.92629,-0.0688 6.43223,0.0318 10.87703,2.1621 15.06583,7.22112 20.09432,26.18201 10.60227,39.97816 -1.9177,2.78736 -7.10411,7.82184 -8.05781,7.82184 -0.32507,0 -0.96066,0.36528 -1.41238,0.81188 -0.45175,0.44652 -2.58239,1.30373 -4.73482,1.90482 -4.65007,1.29874 -11.22028,1.1919 -15.88777,-0.25831 z m 12.20432,-13.062 c 5.12439,-1.42313 9.16112,-7.12523 9.14036,-12.91128 -0.0149,-4.12764 -2.70874,-9.22054 -6.07204,-11.47936 -5.96129,-4.00368 -14.3374,-2.31768 -18.1203,3.64734 -7.09803,11.19238 2.38486,24.26098 15.05198,20.7433 z m -5.76625,-8.48369 c -1.87376,-0.68904 -3.10772,-2.2797 -3.10772,-4.00615 0,-3.84175 4.69628,-5.64088 7.3502,-2.81599 1.77048,1.88462 1.71074,3.85248 -0.17422,5.73744 -1.52265,1.5227 -2.30773,1.73198 -4.06826,1.0847 z m 76.43772,21.93569 c -11.14446,-2.44775 -18.85068,-10.81272 -20.56218,-22.32011 -2.35878,-15.8589 10.49754,-30.78212 26.58421,-30.8582 8.62529,-0.0408 17.80481,4.45466 21.48912,10.52378 0.73547,1.21147 1.50768,2.34253 1.71605,2.51341 0.60318,0.49481 1.73088,3.71406 2.81718,8.04204 2.24947,8.96253 -1.2045,19.86683 -8.33298,26.30692 -3.39108,3.06367 -6.66216,4.64095 -11.91696,5.74639 -5.10569,1.074 -7.07796,1.08161 -11.79444,0.0462 z m 12.34782,-14.41595 c 5.7708,-2.87568 8.83008,-10.39446 6.6027,-16.22688 -1.17276,-3.07061 -5.84016,-8.25516 -7.4319,-8.25516 -0.52637,0 -1.46592,-0.31776 -2.08781,-0.70613 -0.73518,-0.45912 -2.3615,-0.55236 -4.6491,-0.26651 -9.50437,1.18745 -14.80783,10.18912 -11.03209,18.72484 3.33228,7.53324 11.24214,10.39548 18.5982,6.72984 z m -7.812,-8.37966 c -4.16011,-1.53888 -2.74962,-8.02238 1.74528,-8.02238 3.46272,0 5.25624,5.21455 2.49768,7.26144 -1.46646,1.08806 -2.74086,1.31664 -4.24296,0.76094 z m -361.44515,13.06042 c -1.65382,-0.96328 -2.95235,-3.948 -2.95235,-6.786 0,-1.9777 0.38195,-2.90273 1.70925,-4.13986 2.3835,-2.22162 3.84157,-2.65303 7.00872,-2.07384 3.88951,0.71122 5.57752,2.84218 5.57752,7.04112 0,2.85192 -0.23381,3.45048 -1.9285,4.93762 -1.57425,1.38139 -2.51633,1.68884 -5.12776,1.67342 -1.75958,-0.0103 -3.68866,-0.30403 -4.28688,-0.65246 z m 25.53051,-0.39281 c -4.36248,-2.70641 -3.95643,-9.65291 0.69676,-11.92159 4.7755,-2.32824 11.22073,0.87 11.22073,5.5679 0,2.34706 -1.42035,5.17152 -3.24247,6.44777 -1.81019,1.26792 -6.5627,1.21639 -8.67502,-0.0939 z m 25.84839,0.0891 c -1.05519,-0.52067 -2.37745,-1.90913 -2.9384,-3.0855 -2.29549,-4.81379 1.22953,-9.63456 7.01518,-9.59387 3.05009,0.021 4.57275,0.87342 6.33396,3.54438 3.89037,5.89996 -3.61683,12.4872 -10.41074,9.13499 z m 25.20927,-0.0753 c -2.8143,-1.92325 -4.02631,-5.32169 -2.97423,-8.33982 1.80391,-5.17471 11.81611,-5.80356 14.05809,-0.8829 1.17802,2.58546 0.9213,6.11735 -0.56019,7.70759 -2.51459,2.69899 -7.69896,3.44539 -10.52367,1.51513 z m 25.35755,-0.17184 c -5.49811,-4.32486 -2.3541,-12.44297 4.8215,-12.44976 2.89987,0 4.88895,1.19483 6.20191,3.73379 1.17786,2.27797 1.17414,3.9312 -0.0149,6.22903 -1.85195,3.58129 -7.8854,4.94417 -11.00936,2.48694 z m -74.2467,-27.8971 c -4.07913,-1.2141 -6.05061,-5.81515 -4.18037,-9.75624 1.26234,-2.66035 3.66145,-4.01121 7.12362,-4.01121 3.54244,0 6.80573,3.12801 6.80573,6.52359 0,5.38859 -4.57085,8.78496 -9.74898,7.24386 z m 24.82924,-0.1653 c -4.34391,-1.25472 -5.67561,-9.23083 -2.03544,-12.19104 2.86315,-2.32836 7.98467,-2.0286 10.38782,0.60798 2.95021,3.23676 2.07819,9.4014 -1.59879,11.30279 -2.08748,1.07952 -3.74818,1.14846 -6.75359,0.28027 z m 24.61848,-0.24421 c -2.04395,-1.11065 -3.85568,-5.40893 -3.31585,-7.86672 0.21641,-0.9855 1.09392,-2.62409 1.94996,-3.64145 1.37988,-1.63996 1.945,-1.84977 4.98187,-1.84977 3.06681,0 3.64658,0.22123 5.53861,2.11322 2.38126,2.38135 2.70576,4.58863 1.20332,8.18461 -1.46664,3.51011 -6.68975,5.05326 -10.35791,3.06011 z m 25.79673,-0.0155 c -2.0228,-0.88697 -2.52139,-1.65888 -3.37316,-5.2218 -1.6957,-7.09319 7.90422,-11.76512 12.65848,-6.16037 1.50779,1.77744 1.72664,2.49497 1.50617,4.93745 -0.54055,5.98741 -5.32215,8.84304 -10.79149,6.44472 z m -104.38107,-1.57403 c -1.52656,-1.59342 -1.82552,-2.41885 -1.82552,-5.04048 0,-2.81612 0.2189,-3.31782 2.15191,-4.93152 1.72472,-1.43989 2.75211,-1.79653 5.17553,-1.79653 2.51322,0 3.33034,0.30672 4.84048,1.81687 1.48627,1.48619 1.81682,2.34178 1.81682,4.70238 0,5.23049 -1.80744,7.10603 -6.87608,7.13495 -3.05967,0.0174 -3.66773,-0.1995 -5.28314,-1.88567 z M 706.71654,438.12347 c 0,-132.01281 -1.1e-4,-132.02683 -1.28298,-135.03037 -1.61987,-3.79228 -3.82104,-6.12976 -7.57692,-8.0461 l -2.95511,-1.5078 -214.12079,0.0178 c -196.77727,0.0162 -214.33454,0.1 -216.76053,1.0351 -3.45088,1.3301 -6.95103,4.70666 -8.86936,8.55622 l -1.5397,3.0898 v 131.95596 131.95604 h 226.55269 226.5527 z M 425.1258,554.8733 c -2.12708,-0.88416 -4.3231,-3.5962 -4.3159,-5.32994 0.0103,-2.66701 1.46586,-5.65414 3.2978,-6.7711 2.27795,-1.38898 7.56922,-1.63304 10.71808,-0.49438 3.89646,1.40896 5.3497,6.83545 2.79241,10.42685 -2.05389,2.88441 -8.20259,3.95176 -12.49239,2.16857 z m 35.7702,0.43404 c -4.55872,-0.83292 -6.5262,-2.99961 -6.5262,-7.18681 0,-2.58333 3.21566,-5.67052 6.56008,-6.29795 2.87768,-0.53986 7.57003,0.10686 9.3799,1.29267 1.91118,1.25227 3.03742,5.46724 2.079,7.78096 -1.68674,4.07225 -5.44746,5.51565 -11.49278,4.41113 z m 32.94182,-0.0789 c -5.1761,-1.11883 -7.41428,-5.63869 -4.89993,-9.89512 1.36341,-2.30814 2.8931,-3.15744 6.44434,-3.57804 6.70826,-0.79449 10.57569,1.56633 10.57569,6.45579 0,3.35675 -0.75331,4.87818 -2.97079,6.00012 -2.07764,1.05124 -6.64362,1.5589 -9.14931,1.01725 z m 157.8721,-0.93147 c -4.5081,-1.59874 -6.28308,-5.28757 -4.29246,-8.9208 1.95127,-3.56135 4.11438,-4.75084 8.61708,-4.73843 4.68685,0.0135 6.7743,0.99932 8.12112,3.83758 1.81176,3.81799 0,8.13036 -4.10442,9.77288 -2.99099,1.19675 -5.06987,1.20893 -8.34132,0.0488 z m -380.43859,-1.7902 -2.12159,-2.1216 v -89.31579 -89.31586 l 2.11325,-2.11324 c 2.30953,-2.30955 5.07826,-2.77463 8.15957,-1.3707 3.58574,1.63376 3.40114,-3.1656 3.40114,88.41812 v 84.25004 h 60.63134 c 66.56562,0 63.20393,-0.19117 65.22078,3.70892 1.46791,2.83867 1.18398,5.3247 -0.87072,7.62446 l -1.81361,2.02982 -66.29927,0.16373 -66.29931,0.16373 z m 268.40857,1.41639 c -2.58966,-0.7556 -4.17118,-3.18171 -4.05028,-6.2133 0.1227,-3.0786 1.01292,-4.67259 3.2577,-5.83341 1.57107,-0.81246 7.99473,-0.93875 47.74848,-0.93875 h 45.93322 l 2.11194,1.41938 c 3.94656,2.65246 3.82338,7.61858 -0.26418,10.64485 -1.73898,1.28745 -2.15843,1.2999 -47.23731,1.40432 -27.12219,0.0629 -46.29694,-0.13214 -47.49957,-0.48309 z M 468.94778,533.8182 c -0.99863,-0.99867 -1.52744,-2.23307 -1.53103,-3.57387 -0.005,-1.12656 -1.42223,-10.29927 -3.15379,-20.38382 -1.73155,-10.08457 -3.81005,-22.39111 -4.61888,-27.34793 -0.80881,-4.95682 -3.32276,-19.92048 -5.58662,-33.25259 -2.26379,-13.33212 -4.37747,-25.99047 -4.69694,-28.12968 -2.01474,-13.48916 -3.0708,-18.47039 -3.0708,-14.48448 0,1.49731 -1.84263,11.73395 -3.41928,18.99549 -0.51957,2.39295 -1.93694,9.52516 -3.14982,15.84938 -1.21282,6.32421 -3.16353,16.11352 -4.33482,21.75404 -3.47232,16.72076 -4.5816,22.13129 -6.80276,33.18039 -1.81886,9.04784 -2.34482,10.73957 -3.81632,12.27549 -3.63138,3.79034 -8.7041,1.22304 -10.15827,-5.14107 -0.41887,-1.83314 -2.55447,-10.74489 -4.74578,-19.80388 -2.19133,-9.059 -4.99705,-20.66633 -6.23503,-25.79406 -1.23792,-5.12775 -2.3807,-9.54896 -2.53944,-9.82496 -0.15874,-0.276 -1.21188,0.56309 -2.34036,1.86464 l -2.05178,2.36642 -6.55636,-0.0888 -6.55636,-0.0888 -0.32712,1.6427 c -0.17993,0.90347 -1.04356,6.11778 -1.9192,11.58738 -0.87568,5.4696 -2.72366,16.09799 -4.10665,23.61866 -1.38301,7.52068 -3.17081,17.31 -3.97285,21.75403 -2.43696,13.50277 -3.33371,16.79689 -4.99852,18.36089 -1.84375,1.73209 -4.76208,1.85753 -6.50564,0.27961 -1.62968,-1.47481 -3.54758,-8.5629 -6.64144,-24.54516 -0.97688,-5.0464 -4.06136,-20.14652 -4.76102,-23.30789 -0.45398,-2.05109 -1.86581,-8.62393 -3.1375,-14.60628 -1.27162,-5.98236 -3.10574,-14.51304 -4.07576,-18.95708 -0.97012,-4.44405 -2.11928,-10.03794 -2.5538,-12.43088 -0.99988,-5.50631 -1.55828,-6.13828 -2.40377,-2.72062 -1.32699,5.3635 -4.35578,14.21104 -5.4221,15.8384 -2.04997,3.12871 -3.60371,3.35312 -23.21621,3.35312 h -18.07292 l -1.52567,-1.5256 c -2.37323,-2.37325 -2.15439,-6.51872 0.49445,-9.36447 2.4743,-2.6583 2.6832,-2.68801 19.28322,-2.74193 l 12.91244,-0.0419 0.66461,-1.70925 c 0.58475,-1.5037 2.96272,-9.29948 8.38943,-27.50331 0.86616,-2.90572 1.7257,-5.8425 1.91012,-6.5262 1.7466,-6.47765 4.977,-9.75606 8.26939,-8.39232 2.71875,1.12613 3.78557,4.01338 7.46442,20.20164 5.13831,22.61029 10.05727,44.60826 11.18823,50.03427 0.74815,3.58941 1.87724,9.00473 2.50904,12.03401 1.69751,8.13863 1.542,8.34119 3.75139,-4.88624 1.40308,-8.40016 1.52795,-9.10649 3.67065,-20.76016 1.39238,-7.57321 2.6952,-10.25088 5.52236,-11.35054 0.89994,-0.35003 4.35336,-0.61364 7.67433,-0.58582 l 6.03803,0.0505 0.60024,-2.32334 c 0.33011,-1.27785 1.35733,-5.26018 2.28268,-8.84958 1.88868,-7.32584 4.46436,-12.95915 6.48258,-14.17803 2.16508,-1.30754 4.811,-0.35093 6.5208,2.35756 0.82087,1.3004 2.22872,5.1213 3.12848,8.4909 3.91702,14.66912 8.60702,33.35277 9.87794,39.35111 l 1.37684,6.49822 1.02688,-4.3228 c 0.56479,-2.37757 1.60996,-7.39947 2.32268,-11.15981 0.71274,-3.76032 2.24452,-11.59179 3.40408,-17.40322 5.21288,-26.12702 11.49296,-58.12954 12.075,-61.53285 0.35078,-2.05109 1.15692,-6.80589 1.79139,-10.56624 1.22189,-7.24109 1.72547,-8.64336 3.76781,-10.49165 2.53172,-2.29123 7.52856,0.18973 8.50303,4.2218 0.17248,0.71364 0.99564,5.91247 1.82919,11.55298 0.83363,5.64051 2.33694,15.15012 3.34074,21.13248 1.00385,5.98236 2.56667,15.63182 3.47295,21.44327 0.90626,5.81143 2.04573,12.8038 2.53216,15.53859 0.48641,2.7348 1.3342,7.4896 1.88402,10.56625 0.54975,3.07664 1.53975,9.21255 2.19989,13.63536 0.66014,4.42282 1.89546,11.53457 2.74512,15.8039 0.84958,4.26934 1.54478,8.53554 1.54478,9.48045 0,2.81216 1.13456,2.65052 1.52016,-0.21659 0.1963,-1.45948 1.20452,-8.80687 2.24048,-16.32754 1.03593,-7.52067 2.30159,-16.75062 2.81244,-20.51095 0.5109,-3.76035 1.33695,-9.63395 1.83567,-13.05242 1.65939,-11.37406 5.2779,-40.21865 6.82244,-54.38508 2.79203,-25.60749 2.58766,-24.39369 4.3692,-25.94946 2.18603,-1.90898 5.82013,-1.89624 7.62664,0.0267 2.1894,2.3305 2.49258,3.68903 5.99318,26.85504 0.46491,3.07663 1.42185,8.81039 2.12655,12.74165 3.15093,17.5781 4.55013,25.53877 5.35317,30.45566 0.47454,2.90571 1.14345,6.82141 1.48642,8.7016 0.88967,4.87655 5.18878,30.41431 7.61049,45.20784 1.13234,6.91723 2.23719,12.37129 2.45516,12.12012 0.21804,-0.2512 0.9885,-3.81305 1.71216,-7.91523 3.38338,-19.17787 16.23916,-82.97657 17.03323,-84.52996 1.35845,-2.65733 3.16497,-4.04003 5.27834,-4.04003 3.52596,0 4.74491,1.88363 6.66201,10.29486 0.93009,4.08052 2.47942,10.77547 3.44306,14.87765 0.96356,4.10221 2.51289,10.81487 3.44284,14.91705 0.93001,4.10219 1.88502,8.29762 2.12232,9.32317 l 0.43144,1.86464 12.50264,0.16809 12.50266,0.16812 1.54535,1.83658 c 1.41321,1.67952 3.59543,7.79563 6.37723,17.8733 0.58998,2.13728 1.21061,3.74795 1.3794,3.57924 0.71898,-0.71904 11.60322,-36.43669 15.65784,-51.38285 2.5563,-9.42307 4.6455,-11.4156 9.75186,-9.30051 3.26994,1.35446 3.4878,1.88999 6.73104,16.54707 1.52184,6.87786 3.366,14.17839 5.71758,22.63489 l 0.93623,3.36705 1.15496,-1.50241 c 0.63527,-0.82632 1.16117,-1.68031 1.16885,-1.89775 0.008,-0.21744 0.96504,-0.84674 2.12771,-1.39845 2.39647,-1.13723 12.27709,-1.40869 14.90503,-0.40956 1.26294,0.48017 1.61262,0.39109 1.82969,-0.46615 0.14761,-0.58288 0.3168,-27.00144 0.37603,-58.70794 l 0.10755,-57.64819 h -68.93967 c -68.48592,0 -68.9504,-0.009 -70.55435,-1.27002 -3.27717,-2.57782 -2.36152,-9.15949 1.5311,-11.00525 2.20218,-1.04422 144.41471,-1.1799 146.6971,-0.13996 0.81385,0.3708 2.17381,1.68743 3.02216,2.92582 l 1.54247,2.25162 v 100.73511 c 0,75.43377 -0.18288,101.23208 -0.72792,102.71383 -0.43207,1.17445 -1.5468,2.40217 -2.74248,3.02048 -2.62626,1.35808 -6.02819,0.4305 -8.29314,-2.26118 -1.9098,-2.2697 -1.88873,-1.73338 -1.62942,-41.42913 l 0.17153,-26.26023 h -1.57721 c -0.8676,0 -3.06714,0.30558 -4.88795,0.67907 -1.82083,0.37347 -3.92232,0.79395 -4.67016,0.9344 -1.12423,0.21113 -1.70269,1.35796 -3.34117,6.62409 -1.08995,3.50279 -2.5173,7.42884 -3.17195,8.72455 -1.95541,3.86972 -6.27655,4.72297 -9.18576,1.8138 -2.05604,-2.05607 -3.46896,-6.55839 -8.57204,-27.31543 -0.94451,-3.84209 -1.95964,-6.90792 -2.25569,-6.81293 -0.2961,0.095 -1.62678,3.79795 -2.95698,8.22876 -2.35632,7.84823 -8.25684,26.2674 -13.03398,40.68705 -3.31536,10.00735 -5.68368,12.52296 -10.16922,10.8017 -1.68982,-0.64842 -2.48719,-2.94138 -8.13598,-23.39588 l -5.45203,-19.74195 -11.91581,0.41264 c -6.55368,0.22695 -12.5928,0.24091 -13.42013,0.031 -2.359,-0.59847 -3.15036,-2.5083 -5.58563,-13.48021 -2.07702,-9.35792 -2.31617,-10.03787 -2.73267,-7.7693 -0.25104,1.36741 -0.82517,4.0245 -1.27584,5.90468 -0.9455,3.94457 -3.70149,17.7342 -9.00611,45.06192 -5.97565,30.78476 -7.29445,37.64924 -8.09904,42.15593 -0.50848,2.84826 -1.27875,4.86149 -2.34464,6.12819 -1.43328,1.70343 -1.85525,1.85624 -4.34914,1.57514 -3.30853,-0.37293 -5.44322,-2.49154 -5.97122,-5.92624 -0.19361,-1.25927 -1.22302,-7.74365 -2.28766,-14.4097 -1.06459,-6.66605 -2.30686,-14.49751 -2.76057,-17.40322 -4.49173,-28.76495 -14.29863,-87.73217 -14.83354,-89.19153 -0.42333,-1.15496 -0.86269,1.20778 -2.19579,11.80932 -1.28087,10.18596 -1.85194,14.43761 -5.30176,39.46804 -3.92244,28.46012 -9.60839,67.86747 -10.3937,72.03496 -0.85363,4.53009 -2.63969,6.27957 -6.41072,6.27957 -2.20089,0 -3.20239,-0.34891 -4.3791,-1.52561 z M 273.10691,340.22992 c -3.67264,-2.23949 -3.95717,-3.1677 -3.95717,-12.90925 v -8.85246 l 1.86557,-2.12475 c 3.14521,-3.58224 7.83741,-3.37562 10.39557,0.45777 1.17899,1.76672 1.27565,2.69424 1.11499,10.69438 -0.18498,9.20617 -0.51931,10.52613 -3.20059,12.63519 -2.03797,1.60307 -3.70824,1.62969 -6.21836,0.0991 z M 425.21237,322.1952 c -7.21365,-1.21538 -8.42877,-9.41669 -1.89577,-12.79504 3.58953,-1.85621 10.06609,-0.80885 12.60032,2.03765 1.29513,1.45476 1.55482,5.50331 0.4816,7.50863 -1.43774,2.68654 -6.24184,4.08178 -11.18615,3.24876 z m 31.89333,-0.60352 c -2.81777,-1.27968 -3.35746,-2.17429 -3.35746,-5.56543 0,-4.57234 3.53192,-7.14298 9.67042,-7.03837 4.64379,0.0792 6.55032,0.75858 8.27273,2.94828 2.50663,3.18672 1.33945,7.68648 -2.50227,9.64638 -3.05712,1.55962 -8.66002,1.56386 -12.08342,0.009 z m 36.87396,0.52597 c -2.78601,-0.46785 -5.21446,-2.56229 -5.73872,-4.94945 -0.5387,-2.45252 1.10181,-5.93454 3.3416,-7.09282 2.58276,-1.33554 11.09251,-1.33788 12.99754,-0.005 1.64516,1.15248 3.24248,4.04268 3.24248,5.86711 0,2.12952 -1.68296,4.74665 -3.54461,5.51214 -2.12524,0.8739 -7.13365,1.19816 -10.29829,0.66672 z"
       id="path360"
       inkscape:export-filename="../Desktop/path360.png"
       inkscape:export-xdpi="96"
       inkscape:export-ydpi="96" />
  </g>
</svg>
